<svg id="Layer_4" data-name="Layer 4" xmlns="http://www.w3.org/2000/svg" viewBox="0 0 102.07 98.51"><defs><style>.cls-1,.cls-2,.cls-3,.cls-4{fill:none;stroke-linecap:round;stroke-linejoin:round;stroke-width:2px;}.cls-1,.cls-2,.cls-3,.cls-4,.cls-5,.cls-6,.cls-7{stroke:#fff;}.cls-2{stroke-dasharray:3.02 3.02;}.cls-3{stroke-dasharray:3 3;}.cls-4{stroke-dasharray:3.02 3.02;}.cls-5{fill:#fff;}.cls-5,.cls-6,.cls-7{stroke-miterlimit:10;}.cls-6{fill:#d1ecfb;}.cls-7{fill:#484f59;}</style></defs><title>advantages-icon__1</title><path class="cls-1" d="M460.16,641.84a8.67,8.67,0,0,1,.94,1.17" transform="translate(-363.61 -636.01)"/><path class="cls-2" d="M462.35,645.74c3.41,11.67-9.84,35.6-32.52,57.24-25.63,24.46-53.61,36.73-62.5,27.42-5.23-5.48-2.67-17.22,5.54-30.94" transform="translate(-363.61 -636.01)"/><path class="cls-1" d="M373.66,698.16l.8-1.27" transform="translate(-363.61 -636.01)"/><path class="cls-1" d="M425.42,647.92c15.64-9.18,29.07-12,34.74-6.08,8.88,9.31-4.69,36.69-30.33,61.14s-53.61,36.73-62.5,27.42" transform="translate(-363.61 -636.01)"/><path class="cls-1" d="M431.63,667.54C406,643.09,378,630.81,369.13,640.12" transform="translate(-363.61 -636.01)"/><path class="cls-3" d="M427.22,722.6c15.64,9.18,29.07,12,34.74,6.09,8.88-9.31-4.69-36.69-30.33-61.14s-53.61-36.73-62.5-27.42" transform="translate(-363.61 -636.01)"/><path class="cls-1" d="M462,728.68a8.83,8.83,0,0,0,.94-1.17" transform="translate(-363.61 -636.01)"/><path class="cls-4" d="M464.15,724.78c3.41-11.67-9.84-35.6-32.52-57.24C406,643.09,378,630.81,369.13,640.12c-5.23,5.48-2.68,17.22,5.54,30.94" transform="translate(-363.61 -636.01)"/><path class="cls-1" d="M375.46,672.36l.8,1.27" transform="translate(-363.61 -636.01)"/><path class="cls-5" d="M412.86,647.34a38.72,38.72,0,1,1-38.72,38.72,38.76,38.76,0,0,1,38.72-38.72m0-3a41.72,41.72,0,1,0,41.72,41.72,41.77,41.77,0,0,0-41.72-41.72Z" transform="translate(-363.61 -636.01)"/><path class="cls-6" d="M389.17,656.88s-.2.08-.12.15S389.24,657,389.17,656.88Z" transform="translate(-363.61 -636.01)"/><path class="cls-7" d="M389.14,656.87c-.05,0-.16.1-.1.16h0c.06,0,.16-.09.1-.16Z" transform="translate(-363.61 -636.01)"/><path class="cls-6" d="M393.46,669.65s-.2.08-.13.15S393.53,669.73,393.46,669.65Z" transform="translate(-363.61 -636.01)"/><path class="cls-7" d="M393.44,669.64c-.05,0-.17.1-.11.16h0c.06,0,.17-.1.11-.16Z" transform="translate(-363.61 -636.01)"/><polygon class="cls-1" points="23.78 51.59 19.77 60.66 23.34 67.58 23.27 76.31 25.65 81.73 35.25 61.95 23.78 51.59"/><polyline class="cls-1" points="27.06 17.46 23.25 24.04 19.43 31.04 22.12 35.34 24.8 30.89 30.28 37.53 20.87 45.95 15.66 46.45 14.59 49.52 19.46 55.72 11.7 52.15 9.6 49.61"/><path class="cls-1" d="M391.18,657.37l5,10.34,6.7-5.42,2.08-9.4S399.87,652.84,391.18,657.37Z" transform="translate(-363.61 -636.01)"/><path class="cls-1" d="M439.34,655.89c-4.89,2.56-9.58,5.06-9.58,5.06l-9.4,2.93-6-2.09-6.11,5.55,2.23,3.42-5.2,3,.43,2.51,5.82,1,5.36,2.94-4.35,1.07L410,679.57l-4.7,1.1-3,8.25,2.43,4.25,4.8.2,1.69,9.65,3,6.69,3.63-2.33,6.84-16.89-4-1.59-.7-3.75,3.93,1.52,2,.5,2.72-3.47,3.47,6.19,5.29-3.57,3.83,7.55,6.12-12.48,3.83-7.12" transform="translate(-363.61 -636.01)"/></svg>
