<svg id="Layer_4" data-name="Layer 4" xmlns="http://www.w3.org/2000/svg" viewBox="0 0 98.97 58.21"><defs><style>.cls-1{fill:none;stroke:#fff;stroke-miterlimit:10;stroke-width:2px;}</style></defs><title>advantages-icon__4</title><polyline class="cls-1" points="8.8 50.28 8.8 57.21 97.97 57.21 97.97 8.22 90.26 8.22"/><rect class="cls-1" x="1" y="1" width="89.16" height="48.99"/><path class="cls-1" d="M532,716.26a6.52,6.52,0,0,0-5.45-5.29v-25a6.53,6.53,0,0,0,5.43-5.19h64.83a6.53,6.53,0,0,0,5.43,5.19v25a6.53,6.53,0,0,0-5.45,5.29Z" transform="translate(-518.79 -673.01)"/><circle class="cls-1" cx="45.58" cy="25.49" r="10.36"/><line class="cls-1" x1="61.5" y1="25.49" x2="76.81" y2="25.49"/><line class="cls-1" x1="61.5" y1="19.19" x2="72.91" y2="19.19"/><line class="cls-1" x1="61.5" y1="31.8" x2="72.91" y2="31.8"/><line class="cls-1" x1="29.67" y1="25.49" x2="14.35" y2="25.49"/><line class="cls-1" x1="29.67" y1="31.8" x2="18.25" y2="31.8"/><line class="cls-1" x1="29.67" y1="19.19" x2="18.25" y2="19.19"/></svg>
