<svg id="eskiz" xmlns="http://www.w3.org/2000/svg" viewBox="0 0 243.45 131.24"><defs><style>.cls-1{fill:#fff;}</style></defs><title>logo</title><path class="cls-1" d="M233.55,35.17c-1.52-.43-2.86.89-3.23,2a5.09,5.09,0,0,0,.6,4.37c1.33,1.46,4,2.94,8.32,1.57a1.31,1.31,0,0,0,.85-.58,1.57,1.57,0,0,0-.09-.95C238.36,38.29,235.58,35.75,233.55,35.17Z" transform="translate(-8.54 -11.93)"/><path class="cls-1" d="M235.8,55.78a49.83,49.83,0,0,1-5.58-.33,17.2,17.2,0,0,1-10-4.37,13.42,13.42,0,0,1-4.2-10,15.76,15.76,0,0,1,3.7-10.27,12.91,12.91,0,0,1,9.93-4.62c.46,0,.93,0,1.39.07,5.34.53,10.39,3.58,14.61,8.82a33.93,33.93,0,0,1,6.2,11.65,5.33,5.33,0,0,1-2.32,5.9C247.13,54.07,242.84,55.78,235.8,55.78Zm-6.18-25.91c-6.22,0-9.94,5.7-9.94,11.21,0,5.75,4.3,10,11,10.7a46.2,46.2,0,0,0,5.16.31c6.18,0,9.81-1.43,11.78-2.62a1.63,1.63,0,0,0,.66-1.85,30.35,30.35,0,0,0-5.49-10.24c-2.5-3.1-6.63-6.92-12.1-7.46C230.3,29.89,230,29.87,229.62,29.87Z" transform="translate(-8.54 -11.93)"/><path class="cls-1" d="M227.31,30.11a1.84,1.84,0,0,1-1.66-1l-4.21-8.63a1.84,1.84,0,0,1,1.05-2.55l12.22-4.26a1.85,1.85,0,1,1,1.21,3.48l-10.26,3.58,2.22,4.54,5.52-5.07a1.84,1.84,0,0,1,1.75-.42l9.6,2.71a1.85,1.85,0,0,1-1,3.55l-8.61-2.43-6.58,6A1.84,1.84,0,0,1,227.31,30.11Z" transform="translate(-8.54 -11.93)"/><path class="cls-1" d="M218.07,73.85a22.24,22.24,0,0,1-14.42-6.05C198.42,63,196.21,57,197.59,51.11,199,45,203.12,41,209.37,39.57a24.35,24.35,0,0,1,8.79-.31l-.64,3.63.32-1.82-.32,1.82c-.56-.1-13.65-2.23-16.33,9.06-1.06,4.5.74,9.27,5,13.1,4.59,4.18,10.81,6.07,15.12,4.6,9.68-3.3,6.13-14.68,6-15.16l3.51-1.15a22.23,22.23,0,0,1,.86,8c-.51,5.86-3.67,9.94-9.15,11.8A13.57,13.57,0,0,1,218.07,73.85Z" transform="translate(-8.54 -11.93)"/><path class="cls-1" d="M217.58,116.83a36.16,36.16,0,0,1-27.38-11.75c-7.41-8-10.13-17.85-7.66-27.66,2.58-10.25,10-17.7,15.93-19.75l1.2,3.49c-4.9,1.69-11.32,8.28-13.56,17.16-1.52,6.06-1.58,15.18,6.8,24.25,7.27,7.88,16.76,11.38,28.19,10.42a49.29,49.29,0,0,0,14.13-3.4v-3.36a54,54,0,0,1-8.48-4.4C218.39,96.63,219,88.71,219.39,84c.07-.87.13-1.63.13-2.26A22.55,22.55,0,0,0,217.74,73l3.33-1.59a25.9,25.9,0,0,1,2.15,10.31c0,.77-.07,1.63-.14,2.55-.37,4.64-.83,10.42,5.62,14.42a42.23,42.23,0,0,0,8.89,4.47l1.32.39v8.4l-1,.5a51,51,0,0,1-16.46,4.21Q219.47,116.83,217.58,116.83Z" transform="translate(-8.54 -11.93)"/><path class="cls-1" d="M187,61.95c-15.12,0-27.21-4.05-36-12.1A43.9,43.9,0,0,1,137.9,26.24,5.34,5.34,0,0,1,142.08,20c9.11-1.83,33.8-3.54,66.3,20l-2.16,3C174.9,20.28,151.44,21.86,142.8,23.59a1.64,1.64,0,0,0-1.29,1.93c2.28,11.4,12.37,37.35,56.75,32l.44,3.66A98.4,98.4,0,0,1,187,61.95Z" transform="translate(-8.54 -11.93)"/><path class="cls-1" d="M215.88,41c-25.79-24-43.66-25.5-48.54-25.38a.06.06,0,0,0-.06.05c-.29,4.24.68,6.14.69,6.16l0,0-3.19,1.85c-.16-.27-1.54-2.83-1.16-8.23a3.73,3.73,0,0,1,3.65-3.49c2.92-.07,9.12.34,17.91,3.9C195.85,20.16,207,27.72,218.4,38.3Z" transform="translate(-8.54 -11.93)"/><path class="cls-1" d="M221,84.14c-14.2,0-22.5-4.16-27-7.67-5.06-4-6.58-8-6.64-8.2L190.82,67a17.5,17.5,0,0,0,5.66,6.73c4.06,3.1,11.67,6.78,24.86,6.71l0,3.69Z" transform="translate(-8.54 -11.93)"/><path class="cls-1" d="M201.26,97.48c-7.92,0-12.66-2.69-15.3-5.07a14.52,14.52,0,0,1-4.21-6.18l1.78-.51,1.77-.52c.12.39,3,9.47,18.07,8.52,13.81-.87,16.54-3.58,16.56-3.61a.53.53,0,0,0-.09.12l3,2.08c-.65.95-4,4.12-19.29,5.09Q202.38,97.48,201.26,97.48Z" transform="translate(-8.54 -11.93)"/><path class="cls-1" d="M203.3,112.07a38.06,38.06,0,0,1-4.5-.24l.47-3.66h0c.27,0,18.49,2.2,25.26-9l3.16,1.91C221.9,110.66,209.87,112.07,203.3,112.07Z" transform="translate(-8.54 -11.93)"/><path class="cls-1" d="M237.93,105.43a10.88,10.88,0,0,0,7.59-1,.32.32,0,0,1,.39.11.35.35,0,0,1,0,.39,11.44,11.44,0,0,1-7.56,5.74l-.31-3.88Z" transform="translate(-8.54 -11.93)"/><path class="cls-1" d="M48.41,130.25a7.34,7.34,0,0,1-2.17,5.33A7.06,7.06,0,0,1,41,137.79a6.72,6.72,0,0,1-4.28-1.56v5.34a1.55,1.55,0,0,1-.46,1.11,1.48,1.48,0,0,1-1.1.48,1.55,1.55,0,0,1-1.07-.42,1.39,1.39,0,0,1-.46-1.08V130.25a7.33,7.33,0,0,1,2.17-5.33,7.25,7.25,0,0,1,10.43,0A7.33,7.33,0,0,1,48.41,130.25Zm-3,0a4.27,4.27,0,0,0-1.27-3.12,4.24,4.24,0,0,0-6.09,0,4.49,4.49,0,0,0,0,6.26,4.24,4.24,0,0,0,6.09,0A4.31,4.31,0,0,0,45.38,130.21Z" transform="translate(-8.54 -11.93)"/><path class="cls-1" d="M59.56,124.28a1.36,1.36,0,0,1-.39,1,1.25,1.25,0,0,1-.94.4H56.5a4.05,4.05,0,0,0-3,1.3,4.35,4.35,0,0,0-1.26,3.14v5.79a1.24,1.24,0,0,1-.43,1,1.46,1.46,0,0,1-1,.37,1.33,1.33,0,0,1-.93-.37,1.24,1.24,0,0,1-.4-1v-5.83a7.08,7.08,0,0,1,1.92-5,6.72,6.72,0,0,1,4.69-2.27h2.48v.06A1.3,1.3,0,0,1,59.56,124.28Z" transform="translate(-8.54 -11.93)"/><path class="cls-1" d="M73.77,130.11a7.4,7.4,0,1,1-2.17-5.23A7.1,7.1,0,0,1,73.77,130.11Zm-3,0a4.11,4.11,0,0,0-1.27-3,4.33,4.33,0,0,0-6.09,0,4.27,4.27,0,0,0,0,6.08,4.34,4.34,0,0,0,6.09,0A4.11,4.11,0,0,0,70.74,130.1Z" transform="translate(-8.54 -11.93)"/><path class="cls-1" d="M102.31,136.09a1.38,1.38,0,0,1-.46,1.1,1.61,1.61,0,0,1-1.13.46,1.63,1.63,0,0,1-1.11-.42,1.34,1.34,0,0,1-.48-1.05v-5.66a4.09,4.09,0,0,0-1.3-3,4.48,4.48,0,0,0-5.63-.51,4.27,4.27,0,0,0-1.62,2,2.86,2.86,0,0,0-.26.9v6.06a1.73,1.73,0,0,1-.49,1.2,1.55,1.55,0,0,1-1.18.54,1.64,1.64,0,0,1-1.11-.42,1.37,1.37,0,0,1-.48-1.08v-6.31a2.89,2.89,0,0,0-.23-.92,4.28,4.28,0,0,0-1.63-2,4.43,4.43,0,0,0-2.54-.78,4.3,4.3,0,0,0-3.12,1.25,4.08,4.08,0,0,0-1.29,3v5.53a1.45,1.45,0,0,1-.49,1.09,1.61,1.61,0,0,1-1.13.46,1.64,1.64,0,0,1-1.11-.42A1.35,1.35,0,0,1,75,136v-5.66a7,7,0,0,1,2.21-5.18,7.8,7.8,0,0,1,11.46.76,7.3,7.3,0,0,1,5.93-2.74,7.56,7.56,0,0,1,5.41,2.15,6.94,6.94,0,0,1,2.26,5.21Z" transform="translate(-8.54 -11.93)"/><path class="cls-1" d="M118.51,130.11a7.4,7.4,0,1,1-2.17-5.23A7.1,7.1,0,0,1,118.51,130.11Zm-3,0a4.11,4.11,0,0,0-1.27-3,4.33,4.33,0,0,0-6.09,0,4.27,4.27,0,0,0,0,6.08,4.34,4.34,0,0,0,6.09,0A4.11,4.11,0,0,0,115.48,130.1Z" transform="translate(-8.54 -11.93)"/><path class="cls-1" d="M49.53,112.55a4.38,4.38,0,0,1-4.33,4.33,4.29,4.29,0,0,1-3-1.16,3.77,3.77,0,0,1-1.28-2.92V97.2a11.46,11.46,0,0,0-3.51-8.44A11.55,11.55,0,0,0,29,85.28,11.93,11.93,0,0,0,17.12,97.2v15.28a4.29,4.29,0,0,1-1.28,3.08,4.12,4.12,0,0,1-3,1.32,4.28,4.28,0,0,1-3-1.16,3.86,3.86,0,0,1-1.28-3V97.07a19.67,19.67,0,0,1,5.95-14.4A19.64,19.64,0,0,1,29,76.7a19.74,19.74,0,0,1,14.46,6,19.67,19.67,0,0,1,6,14.44Q49.45,97.07,49.53,112.55Z" transform="translate(-8.54 -11.93)"/><path class="cls-1" d="M93.64,100.92H62.28a11.9,11.9,0,0,0,11.07,7.38h4.81a4.55,4.55,0,0,1,3,1.27,3.94,3.94,0,0,1,1.28,3q0,3.18-3.37,4a30.71,30.71,0,0,1-5.77.32A20.54,20.54,0,0,1,52.81,96.43,20.54,20.54,0,0,1,73.27,75.9a20.53,20.53,0,0,1,19,12.67,18.13,18.13,0,0,1,1.37,6.1Zm-9.87-8.58a11.78,11.78,0,0,0-3.93-5.74,10.26,10.26,0,0,0-6.49-2.12,12,12,0,0,0-11.23,7.86Z" transform="translate(-8.54 -11.93)"/><path class="cls-1" d="M170.32,112.75a4.07,4.07,0,0,1-1.21,3,4.26,4.26,0,0,1-2.89,1.27q-3.29.08-4.81.08a19.27,19.27,0,0,1-14.08-5.86,19.55,19.55,0,0,1-5.9-14.44V70.52a3.84,3.84,0,0,1,1.24-2.93,4.15,4.15,0,0,1,2.93-1.16q4.25,0,4.25,6.82v2.57h16.22A3.41,3.41,0,0,1,169,77.18a4.9,4.9,0,0,1,1,3,4.24,4.24,0,0,1-1.24,3,4,4,0,0,1-3,1.28h-15.9V96.43A11.7,11.7,0,0,0,153.3,105a11.14,11.14,0,0,0,8.23,3.49h4.55a4,4,0,0,1,3,1.27A4.18,4.18,0,0,1,170.32,112.75Z" transform="translate(-8.54 -11.93)"/><path class="cls-1" d="M128.06,96.47l.11-.08-.11-.08a18.72,18.72,0,0,0,8.5-16,3.93,3.93,0,0,0-.27-1.32,3.77,3.77,0,0,0-3.82-2.61,3.59,3.59,0,0,0-2.73,1.2,4.31,4.31,0,0,0-1.2,2.81v1.28a11.68,11.68,0,0,1-4,7.78,12,12,0,0,1-8.06,3.13h0a12,12,0,0,1-8.06-3.12,11.68,11.68,0,0,1-4-7.78V80.35a4.3,4.3,0,0,0-1.2-2.81,3.59,3.59,0,0,0-2.73-1.2,3.77,3.77,0,0,0-3.82,2.61,4,4,0,0,0-.26,1.32,18.71,18.71,0,0,0,8.5,16l-.11.08.11.08a18.71,18.71,0,0,0-8.5,16,4,4,0,0,0,.26,1.32,3.77,3.77,0,0,0,3.82,2.61,3.59,3.59,0,0,0,2.73-1.2,4.31,4.31,0,0,0,1.2-2.81v-1.28a11.67,11.67,0,0,1,4-7.78,12,12,0,0,1,8.06-3.12h0a12,12,0,0,1,8.06,3.13,11.67,11.67,0,0,1,4,7.78v1.28a4.31,4.31,0,0,0,1.2,2.81,3.59,3.59,0,0,0,2.73,1.2,3.77,3.77,0,0,0,3.82-2.61,3.93,3.93,0,0,0,.27-1.32A18.72,18.72,0,0,0,128.06,96.47Z" transform="translate(-8.54 -11.93)"/></svg>
