<svg id="eskiz" xmlns="http://www.w3.org/2000/svg" viewBox="0 0 209.06 192.03"><defs><style>.cls-1{fill:#fff;}</style></defs><title>logo_plain</title><path class="cls-1" d="M545.6,643.93c-3.05-.87-5.72,1.77-6.46,4.07-1.08,3.32-.11,7.29,1.21,8.74,2.67,2.93,8,5.88,16.66,3.14a2.61,2.61,0,0,0,1.69-1.15,3.11,3.11,0,0,0-.19-1.89C555.23,650.17,549.66,645.09,545.6,643.93Z" transform="translate(-369.71 -602.26)"/><path class="cls-1" d="M549.13,682.54a91.16,91.16,0,0,1-10.21-.6c-7.36-.83-13.71-3.6-18.37-8a24.55,24.55,0,0,1-7.69-18.3,28.87,28.87,0,0,1,6.77-18.81,23.64,23.64,0,0,1,18.18-8.46c.84,0,1.69,0,2.54.13,9.77,1,19,6.55,26.75,16.14,6,7.46,10,16.09,11.35,21.34a9.75,9.75,0,0,1-4.25,10.8C569.87,679.4,562,682.54,549.13,682.54Zm-11.32-47.43c-11.39,0-18.2,10.43-18.2,20.52,0,10.52,7.87,18.22,20.06,19.59a84.63,84.63,0,0,0,9.46.56c11.31,0,18-2.61,21.56-4.8a3,3,0,0,0,1.21-3.39c-1.1-4.38-4.71-12.11-10.05-18.74-4.58-5.68-12.14-12.66-22.16-13.66C539.06,635.15,538.42,635.12,537.81,635.12Z" transform="translate(-369.71 -602.26)"/><path class="cls-1" d="M533.58,635.55a3.28,3.28,0,0,1-.63-.06,3.37,3.37,0,0,1-2.41-1.84l-7.72-15.8a3.38,3.38,0,0,1,1.92-4.67l22.37-7.81a3.38,3.38,0,1,1,2.22,6.38l-18.77,6.55,4.06,8.31,10.1-9.28a3.38,3.38,0,0,1,3.21-.76l17.58,5a3.38,3.38,0,0,1-1.83,6.5l-15.77-4.44-12,11.07A3.37,3.37,0,0,1,533.58,635.55Z" transform="translate(-369.71 -602.26)"/><path class="cls-1" d="M516.67,715.62c-8.77,0-18.59-4-26.4-11.08-9.58-8.71-13.63-19.84-11.09-30.54,2.65-11.2,10.11-18.5,21.56-21.13a44.61,44.61,0,0,1,16.08-.56L515.64,659l.59-3.33-.58,3.33c-1-.18-25-4.08-29.89,16.59-2,8.23,1.35,17,9.07,24,8.41,7.65,19.79,11.11,27.68,8.43,17.73-6,11.22-26.87,10.94-27.75l6.42-2.1a40.75,40.75,0,0,1,1.57,14.64c-.93,10.72-6.73,18.19-16.75,21.61A24.84,24.84,0,0,1,516.67,715.62Z" transform="translate(-369.71 -602.26)"/><path class="cls-1" d="M515.77,794.29c-19.83,0-37-7.36-50.11-21.52-13.57-14.69-18.55-32.67-14-50.63,4.72-18.76,18.25-32.39,29.17-36.16l2.2,6.39c-9,3.1-20.73,15.16-24.82,31.42-2.79,11.09-2.9,27.79,12.44,44.4,13.31,14.42,30.67,20.84,51.6,19.07A90.13,90.13,0,0,0,548.08,781v-6.15a98.87,98.87,0,0,1-15.52-8.06c-15.31-9.5-14.16-24-13.47-32.67.13-1.6.24-3,.24-4.13a41.25,41.25,0,0,0-3.27-15.95l6.09-2.92A47.43,47.43,0,0,1,526.08,730c0,1.41-.13,3-.26,4.66-.67,8.5-1.52,19.07,10.3,26.39,10.25,6.36,16.22,8.16,16.28,8.18l2.42.72v15.38l-1.91.92A93.38,93.38,0,0,1,522.79,794Q519.23,794.29,515.77,794.29Z" transform="translate(-369.71 -602.26)"/><path class="cls-1" d="M459.86,693.83c-27.69,0-49.81-7.42-66-22.14-16.36-14.92-22.07-33.48-24-43.22A9.77,9.77,0,0,1,377.55,617c16.68-3.34,61.88-6.48,121.38,36.55L495,659c-57.34-41.46-100.29-38.57-116.09-35.4a3,3,0,0,0-2.36,3.54c4.17,20.87,22.65,68.37,103.88,58.64l.8,6.71A180.07,180.07,0,0,1,459.86,693.83Z" transform="translate(-369.71 -602.26)"/><path class="cls-1" d="M512.66,655.49c-47.2-44-79.93-46.68-88.85-46.46a.11.11,0,0,0-.11.1c-.54,7.76,1.25,11.25,1.27,11.28l0-.06-5.85,3.38c-.29-.5-2.81-5.18-2.12-15.07a6.84,6.84,0,0,1,6.69-6.39c5.34-.12,16.68.63,32.78,7.14,19.56,7.91,40,21.75,60.84,41.13Z" transform="translate(-369.71 -602.26)"/><path class="cls-1" d="M522,734.45c-26,0-41.2-7.61-49.4-14-9.27-7.25-12-14.7-12.16-15l6.34-2.32c0,.06,2.43,6.25,10.37,12.32,7.43,5.68,21.37,12.4,45.5,12.29l0,6.76Z" transform="translate(-369.71 -602.26)"/><path class="cls-1" d="M485.88,758.87c-14.49,0-23.18-4.92-28-9.27a26.66,26.66,0,0,1-7.7-11.32l3.25-.93,3.24-1c.21.71,5.57,17.33,33.09,15.6,25.29-1.59,30.27-6.55,30.32-6.6a1,1,0,0,0-.17.23l5.58,3.81c-1.19,1.74-7.23,7.54-35.3,9.31Q487.94,758.87,485.88,758.87Z" transform="translate(-369.71 -602.26)"/><path class="cls-1" d="M489.63,785.59a69.32,69.32,0,0,1-8.24-.44l.86-6.7h0c.49.06,33.86,4,46.24-16.5l5.78,3.49C523.67,783,501.66,785.59,489.63,785.59Z" transform="translate(-369.71 -602.26)"/><path class="cls-1" d="M553,773.44a19.92,19.92,0,0,0,13.9-1.88.58.58,0,0,1,.71.21.64.64,0,0,1,0,.71A20.94,20.94,0,0,1,553.79,783l-.58-7.11Z" transform="translate(-369.71 -602.26)"/></svg>
